<?xml version="1.0" encoding="iso-8859-1"?>
<!-- Uploaded to: SVG Repo, www.svgrepo.com, Generator: SVG Repo Mixer Tools -->
<svg height="800px" width="800px" version="1.1" id="Layer_1" xmlns="http://www.w3.org/2000/svg" xmlns:xlink="http://www.w3.org/1999/xlink" 
	 viewBox="0 0 512 512" xml:space="preserve">
<path style="fill:#2D527C;" d="M484.659,512H27.341c-8.419,0-15.244-6.826-15.244-15.244V298.615
	c0-8.418,6.825-15.244,15.244-15.244H158.23c8.22,0,14.959,6.517,15.235,14.732c1.503,44.739,37.756,79.784,82.535,79.784
	c20.889,0,40.822-7.816,56.125-22.009c6.174-5.723,15.817-5.363,21.543,0.811c5.726,6.174,5.363,15.819-0.811,21.543
	c-20.959,19.438-48.253,30.142-76.857,30.142c-29.535,0-57.479-11.319-78.68-31.871c-17.57-17.031-28.957-38.88-32.872-62.645
	H42.585v167.653h426.831V313.858H353.77c-8.418,0-15.244-6.826-15.244-15.244c0-8.418,6.826-15.244,15.244-15.244h130.889
	c8.418,0,15.244,6.826,15.244,15.244v198.141C499.903,505.175,493.077,512,484.659,512z"/>
<polygon style="fill:#CEE8FA;" points="153.856,141.357 256,301.416 358.142,141.357 302.579,141.357 302.579,15.244 
	209.419,15.244 209.419,141.357 "/>
<g>
	<path style="fill:#2D527C;" d="M256,316.659c-5.206,0-10.05-2.655-12.851-7.043L141.006,149.558
		c-2.995-4.694-3.194-10.645-0.517-15.529c2.675-4.881,7.8-7.916,13.367-7.916h40.319V15.244C194.175,6.826,201,0,209.419,0h93.16
		c8.418,0,15.244,6.826,15.244,15.244v110.869h40.319c5.567,0,10.692,3.035,13.369,7.916c2.675,4.883,2.477,10.834-0.518,15.529
		L268.849,309.615C266.049,314.002,261.204,316.659,256,316.659z M181.667,156.601l74.331,116.476l74.333-116.476h-27.752
		c-8.418,0-15.244-6.826-15.244-15.244V30.488h-62.672v110.869c0,8.418-6.825,15.244-15.244,15.244H181.667z"/>
	<path style="fill:#2D527C;" d="M429.27,374.815h-33.537c-8.418,0-15.244-6.826-15.244-15.244c0-8.418,6.826-15.244,15.244-15.244
		h33.537c8.418,0,15.244,6.826,15.244,15.244C444.514,367.989,437.688,374.815,429.27,374.815z"/>
</g>
</svg>